<?xml version="1.0" encoding="UTF-8"?>
<svg id="Camada_2" data-name="Camada 2" xmlns="http://www.w3.org/2000/svg" viewBox="0 0 287.67 301.69">
  <defs>
    <style>
      .cls-1 {
        fill: #fff;
      }
    </style>
  </defs>
  <g id="Camada_1-2" data-name="Camada 1">
    <path class="cls-1" d="M247.87,5.69s-51.43,48.66-51.44,49.11c.03.11-.11,6.22-.11,6.22v131.14c-6.06-1.89-12.89-4.17-15.54-6.06V29.94c-8.34-10.23-18.19-17.43-27.29-24.26l-47.76,45.05-.38,141.8c-10.99-5.69-23.12-8.34-35.63-8.34-10.99,0-28.43,3.79-32.59,4.93.76-1.14,1.89-2.65,3.03-3.03,6.82-1.89,9.85-6.44,16.68-8.34,15.54-4.17,25.39-3.79,31.08-4.17v-99.68h0c0-1.51.03-1.51.03-3.22,0,1.71-.03-2.35-.03-4.88V26.53c0-12.89-10.23-17.81-28.8-17.81s-31.84,4.17-44.34,4.17C6.82,12.89,5.31,6.06,4.93,0H1.52c-.38,3.03-.76,8.72-.76,11.75,0,40.55,7.58,47.75,24.64,47.75,2.27,0,3.03-1.14,5.31-1.14,5.69,0,7.96,1.14,7.96,5.68v33.73h-16.3c-7.58,0-22.36,10.23-22.36,33.73v28.05h4.17v-11.37c0-6.82,1.14-11.75,9.48-11.75h25.01v46.62c-20.09,14.4-28.8,33.73-28.8,61.4,0,14.02,10.61,32.59,26.91,43.96,16.68,11.75,31.84,13.27,49.27,13.27,31.84,0,61.4-24.64,61.4-61.78,0-1.14-.76-1.89-.76-3.03h-3.41v3.03c0,29.18-20.09,39.04-58.75,39.04-32.59,0-54.2-6.44-61.4-12.89-7.58-6.82-7.2-14.4-7.2-23.5s10.99-19.71,24.64-19.71c15.16,0,33.73,9.1,50.79,28.05,10.61-19.71,30.7-34.11,41.69-34.11,15.92,0,45.48,18.57,56.47,34.11,9.47-14.4,20.09-26.53,34.49-36.01,17.43-11.37,29.56-11.75,43.21-11.75h4.93V64.05c0-7.2,5.31-12.89,15.54-14.4v-2.27c-14.78-9.48-28.05-23.88-39.8-41.69ZM131.52,212.24c-10.99-8.72-19.71-14.02-21.98-17.05V54.2l10.61-9.85,11.37,12.13v155.77ZM223.99,209.21c-8.34-4.55-16.3-10.23-22.36-14.78V56.47l11.04-9.8,11.32,9.8v152.74Z"/>
  </g>
</svg>